<?xml version="1.0" standalone="no"?>
<!DOCTYPE svg PUBLIC "-//W3C//DTD SVG 20010904//EN"
 "http://www.w3.org/TR/2001/REC-SVG-20010904/DTD/svg10.dtd">
<svg version="1.0" xmlns="http://www.w3.org/2000/svg"
 width="216.000000pt" height="202.000000pt" viewBox="0 0 216.000000 202.000000"
 preserveAspectRatio="xMidYMid meet">

<g transform="translate(0.000000,202.000000) scale(0.100000,-0.100000)"
fill="#000000" stroke="none">
<path d="M841 1909 c-23 -16 -40 -35 -38 -42 4 -13 62 -16 88 -5 9 4 20 3 25
-2 5 -5 23 -10 39 -12 22 -2 31 -9 33 -24 4 -26 -24 -40 -44 -23 -11 9 -19 8
-35 -7 -17 -15 -22 -16 -29 -4 -7 12 -12 12 -35 0 -20 -10 -31 -11 -44 -3 -11
7 -23 8 -34 1 -10 -5 -25 -7 -35 -4 -9 3 -26 -1 -37 -10 -18 -14 -18 -16 -2
-43 22 -37 9 -48 -55 -45 -62 2 -80 -17 -49 -50 19 -20 20 -25 7 -35 -10 -9
-16 -9 -21 -1 -5 8 -11 8 -20 0 -7 -6 -20 -8 -29 -4 -9 3 -23 1 -31 -6 -12
-10 -11 -16 7 -40 17 -24 19 -32 9 -44 -13 -15 -85 -17 -107 -3 -6 4 -20 -3
-30 -14 -17 -19 -17 -21 1 -55 14 -26 16 -37 7 -46 -8 -8 -15 -8 -25 0 -9 8
-17 8 -24 1 -8 -8 -17 -7 -31 2 -18 11 -24 10 -41 -5 -29 -27 -26 -41 18 -89
l40 -42 31 18 c17 11 34 17 37 14 3 -3 6 -31 7 -61 2 -69 15 -85 51 -62 29 19
53 13 35 -9 -8 -9 -8 -20 -2 -32 6 -11 7 -25 1 -35 -14 -26 15 -44 48 -29 32
15 36 11 48 -51 13 -65 35 -81 69 -49 29 27 46 21 46 -16 0 -15 7 -35 16 -45
14 -15 15 -20 4 -33 -11 -14 -10 -19 7 -37 20 -19 21 -20 48 -2 27 17 28 17
41 -1 14 -18 17 -32 18 -85 2 -54 34 -33 254 166 119 109 228 208 242 220 l25
23 105 -99 105 -99 -37 -37 c-34 -35 -39 -37 -61 -25 -14 7 -34 10 -45 7 -11
-4 -30 -1 -41 6 -18 11 -24 10 -43 -10 l-22 -22 54 -55 c30 -31 60 -54 67 -53
18 5 203 171 203 184 0 18 -279 277 -293 271 -14 -6 -237 -206 -348 -313 -42
-41 -81 -74 -86 -74 -6 0 -123 116 -261 258 l-251 259 132 119 c73 66 151 137
175 159 l43 38 20 -20 21 -20 -157 -143 c-86 -79 -155 -149 -153 -155 2 -7 94
-106 206 -220 171 -176 205 -207 221 -199 10 5 109 90 220 189 110 99 205 181
211 183 11 4 360 -325 360 -338 0 -5 -64 -63 -142 -130 l-142 -122 -95 96 -95
97 39 39 c28 29 42 37 54 30 10 -5 24 -4 33 1 12 6 24 5 38 -3 17 -11 23 -10
42 10 l23 22 -52 51 -51 52 -121 -112 c-107 -99 -119 -114 -109 -131 9 -14 9
-22 -1 -34 -12 -14 -11 -19 4 -36 15 -16 16 -22 5 -35 -10 -13 -11 -20 -1 -39
10 -19 10 -27 0 -44 -10 -17 -10 -23 1 -36 11 -14 10 -20 -10 -41 -29 -31 -36
-31 -55 -1 -13 20 -14 28 -4 44 10 17 10 23 0 36 -12 14 -11 19 4 36 15 16 15
22 5 35 -10 12 -10 18 -1 29 9 11 9 19 -1 35 -7 12 -16 20 -19 19 -3 -2 -31
-31 -62 -64 -37 -40 -57 -70 -57 -86 0 -17 24 -52 77 -109 42 -46 83 -86 91
-87 8 -2 34 15 58 39 l44 43 27 -26 26 -27 -43 -51 -42 -51 49 -56 c102 -117
128 -122 214 -37 32 32 59 63 59 69 0 14 -67 10 -85 -5 -12 -10 -18 -10 -30 0
-13 10 -19 10 -35 -5 -19 -17 -21 -17 -40 0 -25 23 -25 36 1 64 17 18 24 20
35 10 11 -9 18 -9 26 -1 8 8 16 7 29 -1 15 -9 22 -8 35 5 13 13 22 14 40 6 17
-8 27 -8 39 2 13 11 19 10 33 -4 24 -21 31 -20 58 5 22 20 22 22 6 55 -15 33
-15 35 5 55 14 14 26 18 34 13 16 -10 70 -6 82 6 5 4 1 19 -8 33 -18 29 -12
49 13 46 10 -1 25 2 36 6 11 5 21 3 25 -4 9 -14 41 -4 41 12 0 6 -10 21 -21
34 -23 24 -22 25 30 37 14 3 30 1 37 -5 9 -7 19 -6 33 3 25 15 26 27 6 54 -21
27 -19 32 18 48 22 9 38 10 51 4 13 -7 23 -6 33 5 14 13 4 27 -85 124 -55 59
-202 209 -326 332 l-225 225 -34 -25 c-19 -13 -119 -102 -223 -198 -103 -95
-194 -175 -201 -178 -14 -6 -203 163 -203 182 0 22 54 65 76 59 12 -3 26 1 33
10 10 12 18 13 32 5 15 -7 25 -5 44 8 13 10 25 23 25 28 0 13 -72 85 -86 85
-5 0 -54 -45 -109 -100 l-100 -100 124 -118 c68 -64 133 -123 143 -130 17 -12
30 -3 136 90 64 56 166 147 225 201 l109 99 121 -120 c230 -226 392 -392 395
-404 2 -13 -331 -331 -353 -336 -12 -3 -55 47 -55 65 0 4 70 71 156 148 l156
140 -216 212 c-119 117 -219 213 -223 213 -5 0 -107 -88 -228 -195 l-220 -195
-167 167 c-93 92 -168 173 -168 179 0 6 42 48 92 95 51 46 112 101 135 122 50
46 42 49 156 -70 l79 -81 -53 -51 c-53 -49 -54 -50 -74 -31 -14 13 -25 16 -35
10 -8 -5 -26 -6 -41 -3 -48 9 -44 -16 12 -67 30 -27 59 -49 64 -50 6 0 55 45
110 100 97 97 99 100 85 125 -12 22 -12 28 -1 35 9 5 11 17 7 33 -4 19 -1 29
11 36 15 8 16 12 3 36 -12 23 -12 28 0 35 12 7 12 13 1 34 -13 23 -12 27 10
45 48 40 58 29 63 -69 1 -39 8 -76 14 -82 16 -16 82 41 82 70 0 26 -114 152
-137 152 -8 0 -24 -7 -37 -15 -47 -31 -75 9 -35 51 12 12 18 27 14 33 -3 6
-38 38 -76 71 -82 70 -106 75 -168 29z m90 -179 c22 -12 26 -59 7 -78 -17 -17
-48 -15 -70 5 -23 21 -23 38 2 63 23 23 33 24 61 10z m101 -127 c44 -40 -1
-100 -57 -75 -29 14 -33 47 -8 74 20 22 41 23 65 1z m248 -923 c11 -11 20 -24
20 -30 0 -13 -37 -50 -51 -50 -64 0 -65 98 -1 100 6 0 21 -9 32 -20z m100
-111 c9 -16 8 -26 -5 -45 -27 -41 -85 -27 -85 21 0 29 19 45 52 45 17 0 31 -7
38 -21z"/>
<path d="M891 1700 c-16 -9 -6 -30 15 -30 15 0 20 25 6 34 -4 2 -14 1 -21 -4z"/>
<path d="M987 1574 c-14 -14 -7 -25 13 -22 12 2 21 8 21 13 0 12 -24 18 -34 9z"/>
<path d="M1225 660 c-9 -15 4 -30 26 -30 12 0 19 7 19 20 0 21 -33 29 -45 10z"/>
<path d="M1314 555 c-8 -19 3 -35 26 -35 22 0 33 23 17 39 -15 15 -37 14 -43
-4z"/>
</g>
</svg>
