<?xml version="1.0" standalone="no"?>
<!DOCTYPE svg PUBLIC "-//W3C//DTD SVG 20010904//EN"
 "http://www.w3.org/TR/2001/REC-SVG-20010904/DTD/svg10.dtd">
<svg version="1.0" xmlns="http://www.w3.org/2000/svg"
 width="830.000000pt" height="677.000000pt" viewBox="0 0 830.000000 677.000000"
 preserveAspectRatio="xMidYMid meet">

<g transform="translate(0.000000,677.000000) scale(0.100000,-0.100000)"
fill="#000000" stroke="none">
<path d="M4087 6195 c-26 -29 -137 -154 -248 -277 -111 -123 -218 -243 -238
-268 -20 -24 -66 -76 -103 -115 -36 -38 -79 -86 -95 -106 -15 -19 -78 -89
-139 -155 -96 -103 -264 -292 -424 -479 -106 -123 -380 -435 -435 -495 -33
-36 -116 -131 -185 -210 -69 -80 -156 -179 -195 -221 -38 -41 -124 -135 -190
-209 -66 -74 -141 -157 -166 -185 -168 -182 -239 -273 -239 -304 0 -24 40 -67
252 -272 287 -277 1116 -1089 1658 -1624 201 -198 506 -499 678 -669 l314
-309 73 74 c170 174 721 747 975 1014 151 160 412 429 580 600 168 171 328
334 355 362 28 29 65 67 83 85 18 18 59 65 90 103 31 39 169 186 305 328 137
142 248 260 246 262 -2 2 -296 -1 -654 -5 -357 -5 -925 -12 -1261 -15 l-611
-7 -7 47 c-3 26 -6 94 -6 150 l0 103 173 6 c94 3 591 13 1102 21 512 8 1002
18 1090 21 l161 6 -136 132 c-74 73 -277 267 -450 432 -173 164 -544 524 -824
799 -875 861 -1444 1412 -1470 1427 -8 5 -30 -12 -59 -47z m189 -163 c222
-214 1026 -993 1234 -1197 113 -110 315 -306 450 -435 135 -129 395 -384 578
-566 l334 -331 -319 -7 c-175 -4 -637 -9 -1028 -11 -390 -2 -799 -7 -909 -11
l-198 -6 3 -224 c3 -188 6 -223 19 -226 18 -4 1156 6 1895 17 l520 7 -120
-123 c-66 -68 -212 -221 -325 -339 -112 -118 -279 -291 -370 -385 -92 -93
-202 -208 -246 -255 -203 -216 -613 -636 -645 -662 -20 -16 -51 -51 -69 -76
-18 -26 -78 -92 -134 -147 -56 -55 -129 -129 -162 -165 -208 -226 -439 -460
-451 -458 -15 3 -583 552 -1153 1113 -418 411 -724 709 -1021 994 -134 129
-294 284 -354 345 -61 61 -150 148 -198 193 -48 45 -87 87 -87 93 0 6 26 39
58 73 66 72 227 258 261 302 12 17 51 59 84 95 54 57 188 209 377 425 30 35
132 152 225 261 94 109 203 234 244 278 40 45 94 106 120 136 98 116 396 457
427 487 18 18 108 117 200 220 93 103 196 217 230 253 72 78 213 243 309 362
39 48 77 88 85 87 8 0 70 -52 136 -117z"/>
<path d="M4057 5367 c-68 -73 -188 -201 -268 -285 -79 -84 -198 -213 -264
-286 -66 -73 -177 -193 -246 -267 -70 -74 -173 -186 -230 -250 -57 -64 -259
-284 -449 -489 -376 -407 -550 -601 -550 -613 0 -10 1883 -1905 2168 -2181
l82 -79 73 79 c41 43 127 140 192 214 66 74 171 193 235 264 63 71 158 177
210 237 52 59 154 172 226 251 184 202 584 657 584 665 0 3 -150 3 -332 -1
-183 -4 -494 -11 -690 -15 -205 -4 -361 -11 -366 -16 -4 -6 -5 -86 -2 -180 l5
-170 120 -6 c66 -4 148 -7 183 -8 l62 -1 -2 -212 -3 -213 -192 -3 -193 -2 0
-179 0 -178 -127 -6 c-71 -4 -178 -7 -239 -7 l-111 0 -7 61 c-3 34 -6 112 -6
174 0 62 -3 127 -7 145 l-6 33 -182 -5 -182 -5 -7 75 c-3 41 -6 144 -6 229 l0
153 -215 0 -215 0 0 200 0 200 -190 0 -190 0 2 183 3 182 198 3 197 2 0 155 0
155 -194 0 c-152 0 -196 3 -205 14 -8 9 -11 72 -9 202 l3 189 180 6 c99 4 190
7 202 8 22 1 23 2 25 194 l3 192 203 3 c149 2 204 6 207 15 3 6 1 102 -3 212
-5 110 -6 208 -4 218 4 14 16 17 77 17 39 0 127 3 194 7 l123 6 -3 186 -4 186
105 6 c146 9 312 10 349 3 l31 -6 0 -127 c0 -189 -21 -171 195 -171 l182 0 8
-199 c4 -110 4 -204 0 -210 -4 -7 -71 -11 -191 -11 l-185 0 3 -214 c2 -118 6
-218 10 -221 10 -11 676 -11 1041 -1 l319 8 -114 117 c-62 64 -422 427 -800
808 l-687 692 -124 -132z m695 -507 c47 -52 134 -142 194 -200 60 -58 249
-250 421 -426 l312 -321 -607 -6 c-333 -3 -608 -4 -611 -1 -3 2 -7 83 -9 178
l-4 174 185 4 c102 1 188 5 191 9 3 3 2 115 -2 249 l-7 244 -187 -3 -187 -3
-3 159 -3 158 -260 3 c-143 2 -275 0 -294 -3 -28 -5 -31 -8 -17 -18 14 -11 16
-35 14 -192 l-3 -180 -160 -6 c-88 -4 -175 -7 -194 -8 l-34 -1 8 -220 7 -220
-148 0 c-82 0 -179 -3 -216 -6 l-67 -7 6 -198 6 -199 -191 0 c-126 0 -192 4
-192 10 0 12 148 178 285 320 50 52 124 133 165 180 40 47 152 170 249 274
386 415 462 498 619 668 l163 178 243 -248 c133 -136 281 -290 328 -342z
m-2080 -1182 c-2 -73 -1 -179 3 -235 l7 -103 201 -2 202 -3 3 -120 3 -120
-196 0 c-160 -1 -198 -4 -206 -15 -11 -16 -8 -404 3 -415 3 -3 90 -9 192 -12
l186 -6 2 -196 3 -196 208 -3 207 -2 1 -63 c1 -34 5 -136 8 -227 l6 -165 174
-2 c96 -1 180 -4 186 -7 8 -3 14 -61 17 -187 7 -235 -7 -220 206 -213 86 3
202 6 257 7 l100 2 -3 186 -2 186 186 6 c119 4 191 10 200 18 12 10 14 54 12
248 l-3 236 -170 5 c-93 3 -176 9 -182 13 -9 6 -13 45 -13 136 l0 129 193 6
c422 13 1047 18 1047 8 0 -5 -75 -92 -167 -193 -93 -100 -251 -278 -352 -393
-101 -116 -225 -256 -276 -311 -50 -55 -136 -152 -190 -215 -55 -63 -140 -160
-190 -215 -49 -55 -119 -135 -155 -178 -35 -42 -70 -77 -76 -77 -7 0 -410 397
-896 882 -486 485 -977 974 -1093 1086 -115 112 -214 210 -218 218 -6 10 23
47 105 132 63 64 154 162 203 217 74 82 265 285 269 285 1 0 0 -60 -2 -132z"/>
<path d="M3580 4005 c-85 -85 -160 -166 -167 -179 -12 -23 -6 -31 150 -181 89
-87 172 -162 185 -168 21 -10 33 0 144 109 66 65 143 146 170 178 l50 60 -172
168 c-94 92 -179 168 -189 168 -9 0 -87 -70 -171 -155z m185 59 c18 -7 47 -58
38 -68 -4 -3 -26 -6 -50 -6 -40 0 -43 2 -43 28 0 42 21 59 55 46z m56 -183
c85 -86 -38 -213 -130 -135 -50 42 -41 117 17 148 43 24 80 20 113 -13z m-251
-53 c0 -29 -5 -60 -10 -68 -8 -13 -11 -13 -26 2 -23 22 -22 73 1 98 28 31 35
24 35 -32z m419 26 c26 -33 26 -39 1 -64 -32 -32 -40 -24 -40 35 0 61 9 68 39
29z m-169 -223 c0 -5 -16 -23 -37 -40 -28 -23 -40 -28 -54 -20 -30 16 -33 31
-9 51 23 19 100 26 100 9z"/>
<path d="M3712 2973 c-84 -85 -282 -303 -282 -311 0 -5 81 -86 181 -181 l181
-174 174 174 c96 96 174 180 174 188 0 7 -31 46 -68 85 -254 265 -255 266
-284 266 -20 0 -41 -13 -76 -47z m113 -83 l29 -30 -67 0 c-37 0 -67 4 -67 9 0
12 49 51 64 51 7 0 25 -13 41 -30z m26 -149 c21 -22 29 -39 29 -66 0 -75 -93
-123 -150 -77 -30 24 -38 93 -16 127 34 51 94 58 137 16z m-1 -261 c0 -5 -12
-17 -26 -26 -19 -13 -32 -15 -52 -8 -48 17 -24 32 66 43 6 0 12 -3 12 -9z"/>
</g>
</svg>
