<?xml version="1.0" standalone="no"?>
<!DOCTYPE svg PUBLIC "-//W3C//DTD SVG 20010904//EN"
 "http://www.w3.org/TR/2001/REC-SVG-20010904/DTD/svg10.dtd">
<svg version="1.0" xmlns="http://www.w3.org/2000/svg"
 width="1724.000000pt" height="576.000000pt" viewBox="0 0 1724.000000 576.000000"
 preserveAspectRatio="xMidYMid meet">

<g transform="translate(0.000000,576.000000) scale(0.100000,-0.100000)"
fill="#000000" stroke="none">
<path d="M4239 4754 c-14 -15 -31 -23 -41 -21 -12 4 -18 -1 -18 -12 0 -26 -37
-64 -55 -57 -8 3 -15 11 -14 18 0 10 2 10 6 0 2 -6 9 -10 14 -6 18 11 9 20
-20 19 -20 0 -27 -4 -23 -14 4 -10 1 -13 -12 -8 -9 4 -15 3 -12 -2 3 -5 -1
-14 -9 -21 -10 -9 -15 -9 -15 -1 0 6 -4 11 -10 11 -5 0 -10 -6 -10 -14 0 -8
-9 -18 -20 -21 -11 -3 -21 -12 -22 -18 0 -7 -2 -16 -3 -22 -2 -5 -3 -14 -4
-20 -1 -5 -5 -4 -10 4 -7 11 -20 3 -60 -38 -28 -29 -51 -57 -51 -62 0 -5 -7
-9 -15 -9 -8 0 -15 -4 -15 -9 0 -5 -39 -12 -87 -15 -198 -15 -324 -26 -423
-36 -127 -14 -151 -14 -260 0 -126 17 -170 19 -170 9 0 -5 -22 -9 -50 -9 -27
0 -50 -4 -50 -10 0 -6 -61 -10 -164 -10 -91 0 -167 -4 -170 -9 -3 -5 -22 -12
-41 -15 -19 -3 -51 -9 -70 -12 -19 -3 -35 -10 -35 -15 0 -5 -13 -9 -30 -9 -16
0 -30 -5 -30 -11 0 -8 -16 -9 -52 -5 -141 19 -133 20 -200 -15 -35 -19 -64
-37 -66 -41 -2 -5 -12 -8 -23 -8 -10 0 -19 -4 -19 -10 0 -5 -9 -10 -20 -10
-11 0 -20 -4 -20 -10 0 -5 -6 -10 -14 -10 -14 0 -63 -18 -193 -72 -18 -7 -33
-16 -33 -20 0 -5 -6 -8 -13 -8 -7 0 -22 -8 -33 -18 -21 -20 -74 -35 -74 -21 0
5 -14 15 -30 24 l-30 16 0 -36 c0 -43 -15 -60 -55 -67 -17 -3 -38 -8 -47 -12
-16 -7 -28 2 -65 48 -7 8 -13 22 -13 31 0 8 -4 15 -10 15 -5 0 -10 9 -10 21 0
11 -5 17 -10 14 -6 -3 -10 -1 -10 5 0 6 -18 29 -40 50 -21 21 -41 43 -42 50
-2 7 -20 30 -41 51 -20 20 -37 42 -37 49 0 6 -11 22 -25 36 -20 19 -29 23 -43
15 -15 -9 -15 -10 0 -11 11 0 15 -6 11 -20 -3 -11 0 -20 6 -20 6 0 11 -9 11
-19 0 -11 3 -21 8 -23 4 -1 23 -33 42 -70 19 -38 38 -68 42 -68 5 0 8 -7 8
-16 0 -18 34 -70 62 -95 16 -15 26 -79 12 -79 -7 0 -66 32 -74 40 -5 5 -75 43
-117 64 -13 6 -23 14 -23 19 0 4 -7 7 -16 7 -9 0 -25 10 -35 21 -15 17 -24 20
-46 13 -28 -8 -28 -8 -4 -12 19 -3 21 -6 10 -13 -11 -7 -11 -9 3 -9 10 0 41
-22 69 -50 28 -27 56 -50 63 -50 6 0 25 -17 41 -37 17 -20 38 -44 48 -54 9
-11 17 -21 17 -24 0 -9 -121 -125 -132 -125 -17 0 -127 59 -150 80 -12 11 -26
20 -31 20 -5 0 -22 14 -38 31 -19 20 -35 29 -45 25 -13 -5 -5 -17 37 -56 29
-27 56 -47 60 -44 4 2 10 -4 14 -15 3 -11 25 -34 48 -52 39 -30 106 -102 80
-86 -28 17 -35 -33 -29 -202 7 -212 29 -358 59 -405 9 -14 17 -36 17 -49 0
-22 -46 -105 -76 -134 -8 -8 -14 -18 -14 -22 0 -4 -10 -19 -21 -32 -12 -13
-38 -44 -58 -69 -20 -24 -57 -67 -83 -95 -26 -27 -48 -55 -48 -60 0 -6 -9 -16
-21 -23 -11 -7 -18 -19 -15 -27 3 -9 0 -12 -9 -9 -7 3 -16 -3 -20 -15 -3 -12
-13 -28 -22 -36 -25 -26 -9 -26 20 -1 19 17 24 26 15 29 -8 3 -6 6 5 6 10 1
53 37 97 81 44 44 84 80 90 80 6 0 33 23 60 50 27 28 54 50 60 50 6 0 27 16
46 35 19 20 39 33 45 30 5 -4 9 -2 9 4 0 6 10 15 22 22 18 10 20 9 14 -6 -8
-22 25 -255 36 -255 8 0 12 15 9 38 -1 6 3 12 9 12 5 0 10 -7 10 -15 0 -8 6
-15 13 -15 22 0 27 11 14 31 -9 14 -9 22 -1 27 6 4 13 49 16 104 3 54 10 103
15 110 6 7 16 39 23 71 15 66 39 81 30 18 -1 -7 1 -25 5 -39 10 -39 25 -8 25
50 0 26 5 50 10 53 6 4 10 -7 10 -26 0 -27 2 -30 15 -19 8 7 13 16 10 20 -3 5
0 12 6 16 6 3 15 1 19 -5 4 -7 18 -14 32 -15 29 -3 98 -62 98 -83 0 -8 4 -12
9 -9 5 3 25 -12 45 -34 20 -22 40 -40 45 -40 5 0 11 -4 13 -8 4 -9 132 -72
147 -72 6 0 27 -9 47 -20 20 -12 39 -19 42 -16 3 3 11 -2 19 -12 8 -9 12 -11
8 -4 -14 28 16 9 41 -25 15 -21 37 -48 48 -60 12 -12 35 -40 51 -62 17 -22 36
-40 43 -41 6 0 12 -4 12 -10 0 -5 7 -10 15 -10 8 0 15 -4 15 -8 0 -5 19 -16
43 -26 23 -10 65 -29 92 -42 59 -27 119 -44 158 -44 15 0 27 -4 27 -10 0 -13
46 -13 71 0 13 7 19 7 19 0 0 -6 30 -10 75 -10 43 0 75 4 75 10 0 6 7 10 16
10 10 0 14 -5 10 -15 -4 -12 -2 -13 13 -6 10 6 21 8 23 5 3 -2 32 3 64 11 108
29 458 55 477 36 6 -6 27 -11 47 -11 20 0 40 -3 44 -7 4 -4 19 -8 34 -10 33
-4 109 -22 137 -33 24 -9 66 -26 98 -40 51 -22 208 -67 254 -73 12 -2 26 -6
29 -10 4 -4 14 -7 23 -7 23 1 -17 30 -41 30 -11 0 -18 7 -18 20 0 11 5 20 10
20 6 0 10 -4 10 -10 0 -5 8 -10 19 -10 35 0 93 -30 87 -46 -7 -17 5 -19 22 -2
9 9 16 8 29 -3 10 -8 34 -22 53 -31 19 -8 61 -28 93 -43 60 -28 277 -113 312
-122 17 -4 16 -2 -5 13 -14 10 -28 18 -32 17 -3 -1 -9 4 -12 13 -4 11 -2 12
13 5 10 -6 21 -7 25 -4 3 3 6 1 6 -5 0 -6 9 -13 20 -17 11 -3 19 -9 19 -13 -3
-20 2 -25 11 -12 8 13 10 13 10 -2 0 -12 14 -21 43 -29 23 -6 51 -15 62 -20
51 -23 141 -49 164 -48 25 1 24 1 -5 10 -17 5 -37 16 -44 24 -15 18 1 20 18 3
8 -8 12 -8 12 -1 0 6 -25 30 -55 53 -50 39 -54 44 -38 55 20 15 36 9 88 -30
49 -37 127 -68 135 -55 5 8 17 7 47 -3 40 -14 89 -14 151 -1 29 6 33 10 28 30
-3 12 -2 26 4 29 19 12 11 45 -10 45 -11 0 -20 5 -20 10 0 6 -8 10 -17 10 -16
0 -38 9 -158 64 l-49 23 69 3 c110 4 153 3 172 -5 10 -4 50 -8 89 -9 39 0 78
-7 86 -13 8 -7 39 -13 69 -14 30 -1 60 -6 67 -12 8 -6 12 -5 12 4 0 11 2 11
10 -1 5 -8 12 -11 16 -7 7 7 64 -21 77 -38 4 -6 10 -6 15 2 4 7 19 10 32 8 59
-12 164 -23 176 -18 8 3 14 1 14 -4 0 -5 15 -10 33 -12 41 -4 57 -7 84 -16 12
-4 25 -6 29 -5 4 1 10 -3 13 -8 3 -6 21 -12 40 -15 19 -3 38 -12 42 -19 5 -7
9 -9 9 -4 0 5 6 3 14 -3 9 -7 15 -8 18 -2 4 14 88 -6 111 -27 16 -14 20 -14
28 -2 8 11 12 12 16 3 6 -17 33 -17 33 0 0 9 3 8 9 -2 5 -7 13 -11 19 -7 6 3
17 -1 26 -10 9 -8 21 -12 27 -8 6 3 14 2 18 -3 3 -6 53 -20 111 -33 163 -34
200 -40 252 -35 26 2 50 0 52 -4 3 -4 41 -6 85 -6 44 1 77 -3 75 -7 -3 -4 0
-8 5 -8 6 0 11 4 11 9 0 5 17 7 38 4 20 -2 48 -6 62 -7 14 -2 54 -7 90 -11 78
-9 102 -12 159 -19 24 -3 50 -11 58 -18 11 -9 16 -9 24 3 7 12 13 7 11 -12 -1
-3 32 -4 71 -2 40 2 83 3 97 2 14 -1 39 -2 57 -3 17 0 29 -5 26 -9 -3 -5 11
-7 31 -4 20 3 36 1 36 -3 0 -4 33 -6 73 -5 98 3 197 -8 206 -24 7 -11 10 -11
14 0 4 9 8 10 14 4 4 -5 22 -10 38 -10 17 0 35 -3 40 -7 6 -4 17 -3 24 2 8 5
32 3 55 -4 23 -6 67 -12 98 -11 32 0 58 -2 58 -6 0 -5 120 -13 177 -12 13 1
20 -3 17 -8 -3 -5 3 -9 13 -9 10 0 27 -7 37 -15 11 -8 28 -15 37 -15 9 0 29
-14 44 -31 14 -17 29 -29 32 -26 3 4 20 -3 37 -15 34 -24 33 -22 -21 45 -30
37 -29 49 3 37 14 -6 33 -10 42 -10 14 0 13 2 -3 13 -28 21 -2 30 38 14 30
-13 49 -14 97 -7 8 1 0 6 -17 11 -49 14 -40 29 17 29 39 0 48 3 44 15 -5 12 0
12 28 4 37 -12 79 -13 87 -1 6 7 20 9 93 14 21 2 38 6 38 10 0 3 48 9 108 12
133 8 185 13 242 24 50 9 130 -2 141 -19 4 -8 8 -7 13 2 5 11 7 11 12 2 3 -7
14 -13 25 -13 28 0 167 -29 207 -43 17 -6 32 -16 32 -22 0 -6 10 -12 23 -12
42 -4 172 -35 185 -45 6 -6 12 -8 12 -4 0 4 14 0 30 -9 17 -9 30 -13 30 -11 0
3 12 1 27 -5 14 -5 50 -12 79 -15 30 -3 79 -14 111 -25 32 -11 65 -21 73 -23
8 -1 22 -5 30 -8 67 -27 148 -48 166 -44 13 4 25 2 28 -3 3 -5 24 -9 47 -9 47
-1 85 -8 149 -27 25 -7 79 -23 120 -36 75 -22 149 -52 224 -90 21 -11 41 -18
43 -15 6 5 -52 46 -66 46 -6 0 -11 4 -11 8 0 12 -89 54 -185 87 -87 30 -134
59 -111 68 21 8 217 -3 236 -13 10 -5 40 -7 67 -3 30 3 58 1 72 -6 17 -10 22
-9 27 4 3 8 10 12 15 9 5 -3 7 -9 4 -14 -3 -6 7 -2 23 7 18 11 28 23 24 31 -3
10 0 13 14 9 18 -5 75 -10 289 -23 55 -3 105 -10 110 -14 14 -11 96 -19 89 -9
-3 5 13 9 36 9 28 0 43 -5 47 -16 6 -15 8 -15 20 2 11 15 15 16 26 4 9 -10 9
-12 0 -6 -7 4 -13 3 -13 -2 0 -5 20 -7 45 -6 35 2 45 -1 45 -13 0 -12 3 -13
13 -4 10 8 27 7 66 -5 28 -8 56 -12 61 -9 6 3 10 -2 10 -12 0 -14 2 -15 9 -4
6 10 17 11 37 6 49 -12 134 -14 134 -3 0 6 9 3 19 -6 11 -10 24 -15 30 -12 5
3 11 0 14 -6 3 -9 10 -7 22 7 16 20 16 19 11 -6 -5 -23 -3 -26 20 -23 14 1 39
-2 56 -8 23 -8 36 -8 49 1 11 6 19 8 19 4 0 -9 171 -7 206 1 13 4 27 0 34 -9
7 -8 19 -15 26 -15 20 0 17 -18 -3 -23 -17 -4 -17 -5 0 -6 9 0 17 -5 17 -11 0
-5 7 -10 15 -10 8 0 15 5 15 11 0 5 5 7 10 4 6 -3 10 -2 10 4 0 5 -4 13 -10
16 -18 11 -10 26 10 20 12 -4 27 -1 35 5 18 15 105 3 105 -16 0 -27 21 -24 31
5 9 26 14 29 30 21 10 -6 19 -17 19 -25 0 -22 21 -18 27 5 7 28 34 21 53 -13
14 -26 14 -29 -5 -43 -17 -13 -18 -16 -5 -24 24 -15 27 -12 34 25 4 21 13 35
22 35 8 0 19 11 24 24 8 22 12 24 42 16 22 -7 34 -6 39 2 4 6 14 8 22 5 8 -3
19 -1 25 5 15 15 52 -13 52 -39 0 -23 -12 -28 -52 -25 -10 1 -18 -5 -18 -13 0
-18 17 -28 25 -15 11 18 34 11 37 -12 4 -25 28 -37 28 -13 0 9 5 13 10 10 6
-3 14 5 20 19 9 25 30 36 30 16 0 -21 19 -8 29 20 11 33 26 42 16 10 -5 -15 0
-22 18 -29 18 -7 27 -20 32 -48 l8 -38 8 40 c5 26 3 47 -5 60 -9 15 -9 28 -2
50 14 40 13 40 31 25 8 -7 27 -10 42 -7 17 3 33 -2 47 -15 20 -18 20 -20 4
-29 -20 -11 -25 -43 -7 -37 7 2 28 -11 47 -29 33 -31 34 -34 17 -46 -15 -12
-15 -17 -5 -34 18 -29 65 -54 100 -55 17 -1 30 -5 30 -9 0 -15 95 -128 99
-117 2 6 -1 13 -6 17 -10 6 -33 45 -33 55 0 3 7 6 15 6 7 0 19 8 24 18 10 16
12 16 26 -2 8 -11 25 -31 37 -45 13 -14 38 -45 56 -68 19 -24 40 -43 48 -43
22 0 17 9 -30 57 -48 49 -65 93 -36 93 10 0 59 -40 109 -90 51 -49 96 -90 100
-90 5 0 8 -16 6 -34 -3 -32 0 -36 31 -46 18 -6 39 -8 45 -4 8 4 9 3 5 -4 -4
-7 -3 -12 2 -12 5 0 12 9 15 20 3 11 0 20 -6 20 -15 0 -53 57 -49 72 4 14 -27
48 -44 48 -7 0 -14 -5 -16 -11 -3 -9 -47 35 -146 144 -11 12 -12 17 -3 17 9 0
6 11 -8 36 -12 19 -21 42 -21 50 0 23 19 16 32 -11 6 -14 19 -25 29 -25 12 0
16 -5 13 -15 -4 -8 -1 -15 5 -15 6 0 28 -19 48 -42 21 -23 57 -60 81 -83 23
-22 42 -44 42 -48 0 -9 31 -39 56 -53 11 -6 19 -22 19 -37 1 -46 44 -74 72
-46 8 8 13 8 17 0 11 -18 26 -13 19 6 -3 10 -17 33 -30 50 -16 22 -19 31 -8
27 8 -3 15 -10 15 -15 0 -5 7 -9 15 -9 8 0 15 -4 15 -10 0 -5 5 -10 10 -10 20
0 8 16 -36 49 -37 28 -47 32 -55 20 -8 -14 -10 -11 -13 21 0 8 -8 14 -17 12
-9 -1 -24 10 -34 25 -10 16 -28 37 -41 49 -12 11 -26 33 -30 48 -5 21 -11 26
-25 23 -12 -3 -19 0 -19 10 0 9 -6 13 -15 9 -22 -8 -18 7 5 22 17 10 22 9 32
-8 7 -11 21 -20 31 -20 13 0 17 -5 13 -15 -3 -10 5 -20 25 -30 16 -9 39 -25
49 -35 12 -12 27 -17 37 -14 13 4 14 3 5 -3 -18 -14 9 -35 34 -27 14 4 15 3 6
-4 -11 -7 13 -32 99 -105 105 -90 149 -118 100 -66 -20 21 -20 39 0 39 5 0 9
-6 9 -14 0 -8 7 -17 16 -20 21 -8 21 -8 28 9 3 9 -5 20 -22 30 -15 8 -43 29
-63 47 -20 18 -46 40 -58 48 -11 8 -21 20 -21 27 0 12 -60 63 -76 63 -13 1
-64 47 -64 60 0 5 -7 10 -15 10 -17 0 -49 56 -37 64 5 3 26 -10 47 -29 39 -36
70 -49 42 -17 -27 30 -7 34 29 7 18 -14 37 -25 41 -25 5 0 22 -13 38 -30 16
-16 49 -37 74 -47 25 -9 69 -34 96 -54 28 -20 66 -45 85 -54 19 -10 53 -30 75
-45 22 -15 49 -30 59 -34 16 -5 17 -4 6 9 -17 21 -1 19 35 -5 17 -11 34 -20
39 -20 12 0 -55 53 -144 113 -41 28 -84 59 -95 70 -11 10 -37 28 -57 40 -21
11 -38 24 -38 29 0 4 -5 8 -11 8 -6 0 -23 9 -39 20 -15 11 -30 17 -34 13 -3
-3 -6 0 -6 8 -1 16 -74 75 -142 112 -52 29 -88 57 -88 70 0 12 39 -2 80 -29
19 -12 58 -28 85 -35 28 -7 61 -20 75 -29 47 -32 124 -72 178 -92 30 -11 95
-41 146 -67 90 -46 127 -63 216 -97 25 -10 55 -24 68 -32 13 -8 22 -10 22 -4
0 6 6 12 13 15 6 2 2 2 -10 0 -13 -2 -23 1 -23 7 0 5 -6 10 -14 10 -8 0 -16 4
-18 8 -1 4 -37 26 -78 49 -145 78 -315 175 -355 203 -22 15 -50 30 -62 34 -13
4 -23 11 -23 16 0 4 -16 11 -35 14 -19 4 -35 11 -35 16 0 6 -7 10 -15 10 -9 0
-18 7 -21 15 -4 8 -13 15 -22 15 -12 0 -13 3 -5 11 8 8 24 7 58 -5 40 -13 45
-13 35 -1 -13 16 -3 20 18 7 7 -5 10 -15 7 -24 -7 -17 39 -53 55 -43 5 3 11 1
15 -5 3 -5 13 -10 20 -10 16 0 255 -114 325 -155 25 -15 60 -35 78 -46 18 -10
42 -19 52 -19 10 0 20 -6 23 -12 3 -10 9 -10 23 -2 21 12 30 34 14 34 -6 0 -8
-5 -5 -10 3 -6 -3 -10 -15 -10 -16 0 -20 4 -16 18 5 16 2 18 -24 14 -22 -3
-30 -1 -28 9 2 8 -4 14 -12 14 -8 0 -19 6 -23 12 -4 7 -16 13 -25 13 -10 0
-22 4 -28 8 -5 5 -49 26 -99 47 -123 51 -266 120 -290 139 -20 15 -20 15 1 16
12 0 124 -36 248 -79 125 -44 241 -83 259 -86 18 -4 37 -10 42 -14 6 -4 29
-13 52 -21 28 -8 40 -17 36 -26 -3 -8 0 -14 7 -14 6 0 14 9 17 20 6 22 42 35
73 27 12 -3 18 -1 14 5 -4 6 -29 8 -65 4 -49 -6 -60 -4 -65 8 -3 9 -12 16 -20
16 -8 0 -14 7 -14 16 0 14 -2 14 -16 3 -14 -11 -18 -11 -29 4 -7 9 -20 17 -29
17 -9 0 -16 4 -16 9 0 4 -10 6 -23 4 -14 -3 -29 2 -36 11 -8 9 -22 16 -33 16
-10 0 -17 4 -14 8 3 5 -7 7 -22 4 -27 -4 -72 25 -72 46 0 5 -16 13 -36 16 -19
4 -43 9 -52 12 -9 2 -3 -2 13 -10 23 -12 26 -15 10 -15 -24 0 -64 21 -62 32 2
8 -28 21 -148 62 -27 10 -58 22 -67 26 -10 5 -25 9 -33 9 -8 0 -15 4 -15 9 0
5 -11 12 -25 15 -40 10 -29 21 20 21 25 0 45 -4 45 -9 0 -5 6 -3 14 3 10 8 34
7 97 -5 46 -9 113 -20 149 -25 36 -4 97 -15 135 -24 151 -32 335 -65 369 -65
20 0 53 -7 74 -16 20 -8 68 -22 106 -29 57 -11 73 -11 100 1 l31 13 -48 1
c-26 0 -55 4 -65 9 -41 20 -89 33 -122 32 -24 -1 -31 2 -21 8 7 5 10 14 7 20
-9 14 -36 14 -36 0 0 -13 -77 -4 -95 11 -7 6 -15 7 -18 3 -7 -6 -50 5 -142 37
-65 23 -204 52 -216 44 -5 -3 -9 0 -9 5 0 6 -16 11 -35 11 -23 0 -34 4 -33 12
2 9 -7 12 -27 11 -32 -3 -147 35 -141 46 8 13 142 -4 162 -20 6 -5 30 -10 53
-11 22 -1 41 -5 41 -10 0 -5 7 -5 16 0 9 5 35 5 62 0 110 -22 270 -61 306 -74
34 -13 40 -13 56 1 9 8 22 15 28 15 7 0 12 5 12 11 0 6 -8 8 -17 5 -51 -14
-85 -17 -96 -8 -20 16 -125 42 -263 65 -98 17 -129 26 -129 37 0 12 16 15 85
15 47 0 114 -4 150 -7 161 -17 300 -20 300 -8 0 8 16 11 50 9 27 -2 53 0 56 4
7 7 -1 8 -132 12 -40 2 -87 8 -105 13 -43 14 -243 43 -329 48 -121 7 -163 13
-171 26 -6 9 -11 9 -23 -1 -13 -11 -17 -10 -22 4 -7 17 -8 17 -20 1 -8 -11
-14 -13 -19 -7 -3 6 -15 11 -26 11 -13 0 -18 4 -13 11 5 9 -6 10 -38 5 -24 -4
-55 -2 -69 3 l-24 9 30 12 c18 8 73 12 140 11 61 0 117 3 125 9 19 12 15 13
-94 15 -53 1 -81 6 -84 14 -3 9 11 12 49 11 30 -1 111 1 181 3 70 3 138 3 150
-1 l23 -6 -24 -6 c-47 -11 -36 -30 13 -24 41 5 46 4 46 -13 0 -18 -9 -21 -77
-27 -42 -3 -93 -6 -115 -6 -21 0 -38 -4 -38 -9 0 -4 73 -9 163 -10 155 -1 256
-7 305 -17 14 -3 22 0 22 10 0 21 -23 26 -123 26 -51 0 -99 5 -107 10 -13 9
-13 10 1 10 8 0 25 9 37 20 27 25 42 26 35 1 -4 -16 0 -18 29 -16 18 2 87 4
153 5 149 3 110 17 -55 20 -122 2 -119 16 4 19 88 2 125 20 46 22 -219 6 -273
9 -285 19 -7 6 -17 10 -21 9 -5 -1 -21 3 -36 9 -14 6 -63 13 -107 15 -45 2
-84 7 -88 10 -3 4 -17 7 -30 7 -26 0 -31 18 -7 27 8 3 13 11 10 18 -5 15 41
24 164 31 47 3 90 7 97 9 6 2 13 0 15 -4 2 -4 22 -5 45 -3 24 2 40 8 37 13 -3
5 5 9 18 10 13 0 34 3 48 5 27 5 114 10 225 15 39 1 113 -1 165 -5 190 -14
229 -14 234 -1 4 12 -79 25 -197 30 -21 1 -40 5 -44 9 -12 12 -33 6 -33 -9 0
-17 -16 -20 -25 -6 -3 6 -13 10 -23 9 -9 0 -46 3 -82 6 -100 9 -456 12 -540 4
-41 -4 -102 -10 -135 -13 -33 -3 -86 -7 -117 -10 -40 -4 -58 -2 -58 6 0 7 12
10 30 7 17 -3 30 -2 30 2 0 4 16 7 35 8 35 1 65 20 65 41 0 5 21 13 48 17 60
10 49 8 110 23 29 7 60 10 69 7 9 -4 23 0 32 7 9 8 47 22 86 31 38 10 74 21
80 26 6 5 46 10 88 11 48 2 82 8 88 16 9 10 -2 11 -55 6 -37 -3 -66 -2 -66 3
0 9 -112 10 -165 1 -16 -3 -50 -9 -75 -12 -25 -4 -54 -12 -65 -18 -11 -6 -36
-12 -55 -13 -19 -1 -56 -5 -82 -9 -33 -5 -48 -4 -48 4 0 6 6 11 13 11 8 0 7 3
-3 10 -8 5 -12 11 -10 13 28 22 59 37 80 37 14 0 39 7 55 16 17 8 54 22 84 30
29 7 60 19 67 25 8 6 14 8 14 5 0 -4 8 -2 19 3 10 6 31 12 47 15 16 3 45 8 64
11 19 3 42 13 51 21 8 7 20 14 26 14 6 0 18 10 26 23 13 18 18 19 26 8 11 -16
42 -7 39 11 -2 8 8 13 28 13 22 0 30 4 26 13 -6 16 -91 8 -136 -14 -16 -7 -33
-11 -38 -8 -5 3 -14 1 -21 -4 -22 -18 -77 -25 -92 -12 -12 10 -15 9 -15 -5 0
-13 -6 -16 -21 -12 -12 3 -29 2 -38 -3 -9 -4 -54 -20 -101 -36 -47 -15 -88
-32 -91 -37 -4 -5 -11 -7 -17 -3 -5 3 -23 -1 -38 -9 -16 -8 -37 -15 -46 -15
-10 0 -18 -4 -18 -9 0 -4 -17 -11 -37 -14 -21 -3 -46 -8 -55 -12 -10 -4 -18
-3 -18 2 0 13 119 73 155 79 26 4 75 27 75 35 0 4 6 6 14 3 7 -3 16 2 19 10
10 26 -11 18 -126 -41 -19 -10 -32 -12 -39 -5 -10 10 90 62 121 62 10 0 35 16
57 35 21 19 48 38 59 41 21 6 42 14 137 58 31 14 61 26 66 26 21 0 60 41 65
70 4 19 15 34 30 39 26 10 55 41 39 41 -15 0 -72 -34 -72 -42 0 -5 -8 -8 -18
-8 -18 0 -227 -99 -272 -130 -14 -9 -45 -22 -70 -29 -49 -14 -81 -29 -210 -96
-46 -24 -88 -41 -93 -38 -5 3 -13 -1 -18 -8 -4 -7 -11 -11 -14 -8 -3 4 4 25
17 47 16 32 43 55 108 97 48 30 93 61 99 69 7 8 19 12 27 9 7 -3 17 2 20 11 3
9 11 16 18 16 16 1 66 47 66 62 0 9 3 9 10 -2 7 -11 10 -7 10 19 0 34 0 34 21
15 12 -11 23 -14 27 -8 4 5 20 15 36 22 38 17 168 113 161 120 -3 3 -13 -2
-22 -10 -23 -19 -53 -30 -53 -18 0 4 12 23 26 40 28 33 26 53 -3 28 -10 -8
-31 -19 -48 -22 -41 -10 -95 -53 -95 -75 0 -10 -7 -24 -15 -31 -12 -10 -15
-10 -15 4 0 9 5 16 10 16 6 0 10 4 10 9 0 10 -48 -11 -59 -26 -3 -4 -23 -17
-44 -27 -21 -11 -53 -34 -72 -51 -18 -18 -55 -42 -81 -55 -27 -12 -68 -40 -93
-61 -41 -37 -71 -49 -71 -31 0 12 71 82 83 82 5 0 34 23 65 50 31 28 60 50 64
50 5 0 39 20 76 44 105 68 286 165 310 166 6 0 12 5 12 11 0 8 6 7 17 -2 14
-12 16 -12 8 0 -6 11 -1 13 32 9 23 -3 46 -1 56 7 23 16 21 25 -3 25 -11 0
-20 -4 -20 -10 0 -5 -20 -10 -44 -10 -25 0 -48 -4 -51 -10 -3 -5 -19 -10 -36
-10 -16 0 -29 -4 -29 -10 0 -5 -14 -10 -30 -10 -19 0 -29 -5 -28 -12 2 -8 -7
-12 -24 -11 -20 1 -25 -2 -21 -13 3 -8 0 -14 -6 -14 -6 0 -11 7 -11 15 0 11
-11 15 -40 15 -25 0 -40 -5 -40 -12 0 -10 -2 -10 -8 -1 -14 22 -68 10 -87 -18
-18 -25 -74 -63 -82 -55 -3 2 5 9 16 16 12 6 21 20 21 30 0 16 -7 20 -30 20
-16 0 -30 -4 -30 -10 0 -5 -18 -10 -40 -10 -22 0 -40 -4 -40 -10 0 -6 -33 -10
-79 -10 -44 0 -81 -4 -83 -9 -1 -5 -28 -11 -58 -12 -30 -1 -58 -6 -61 -11 -8
-12 -373 -11 -377 2 -2 5 -26 10 -53 10 -27 0 -49 5 -49 10 0 6 -18 10 -40 10
-22 0 -40 4 -40 9 0 5 -19 11 -42 14 -24 3 -63 11 -88 17 -25 6 -64 14 -87 17
-24 3 -43 9 -43 14 0 5 -27 9 -60 9 -33 0 -60 4 -60 10 0 6 -22 10 -50 10 -27
0 -50 5 -50 10 0 6 -35 10 -82 11 -52 0 -76 3 -63 8 13 5 -10 9 -63 10 -46 1
-92 6 -102 11 -10 6 -39 10 -64 10 -25 0 -46 5 -46 10 0 6 -22 10 -50 10 -27
0 -50 5 -50 10 0 6 -22 10 -50 10 -27 0 -50 5 -50 10 0 6 -22 10 -50 10 -27 0
-50 4 -50 9 0 5 -20 12 -45 15 -25 3 -65 9 -90 12 -25 3 -45 10 -45 15 0 5
-23 9 -51 9 -31 0 -48 4 -44 10 4 6 -18 10 -59 10 -36 0 -68 5 -71 10 -3 6
-26 10 -51 10 -24 0 -44 5 -44 10 0 6 -33 10 -80 10 -44 0 -80 4 -80 9 0 5
-37 12 -82 15 -189 13 -238 18 -238 25 0 4 -42 8 -92 10 -51 1 -118 9 -148 17
-30 8 -102 14 -160 14 -161 1 -315 30 -315 60 0 11 12 15 45 16 25 1 50 2 55
3 22 4 -26 21 -101 36 -92 19 -104 27 -81 53 9 10 17 22 17 26 0 4 -31 4 -70
0 -49 -5 -70 -3 -70 5 0 6 14 11 30 11 21 0 30 5 30 16 0 11 6 13 19 9 11 -3
22 -1 25 4 4 5 -3 12 -14 16 -16 5 -18 10 -10 26 14 26 -6 26 -34 0 -24 -22
-60 -31 -61 -16 -1 18 -16 36 -26 30 -20 -13 -8 13 14 28 22 16 22 16 -9 11
-18 -4 -34 -1 -38 5 -4 5 -13 8 -21 4 -9 -3 -15 1 -15 8 0 18 53 52 105 69 83
27 108 41 97 52 -8 8 -15 8 -26 -2 -9 -7 -22 -10 -30 -7 -8 3 -29 2 -47 -3
-22 -7 -37 -6 -46 2 -11 9 -17 8 -24 -3 -6 -9 -9 -10 -9 -2 0 7 -9 17 -19 22
-16 9 -18 8 -14 -9 4 -14 0 -20 -12 -20 -11 0 -15 5 -11 15 3 8 1 15 -5 15 -6
0 -13 -9 -16 -20 -3 -11 -9 -17 -14 -14 -5 3 -17 0 -27 -5 -11 -6 -22 -8 -25
-5 -11 12 6 40 31 52 15 6 38 22 52 34 14 13 38 29 54 36 l30 13 -25 13 c-13
7 -28 10 -34 6 -17 -12 -55 -19 -60 -11 -4 8 22 23 58 35 9 3 17 10 17 16 0
12 -38 4 -54 -11 -6 -5 -17 -9 -26 -9 -9 0 -25 -9 -34 -19 -17 -19 -17 -19 3
-14 43 11 18 -28 -26 -41 -18 -6 -23 -3 -23 9 0 16 -2 16 -25 1 -13 -9 -31
-16 -40 -16 -8 0 -15 -4 -15 -8 0 -5 -21 -10 -47 -11 -25 0 -52 -6 -60 -12 -7
-7 -13 -7 -13 -2 0 11 94 93 107 93 4 0 32 23 62 50 30 28 56 50 58 50 2 0 13
9 25 20 12 11 17 20 11 20 -6 0 -16 -7 -23 -15 -11 -13 -15 -13 -22 -3 -7 10
-11 9 -22 -4 -7 -10 -18 -18 -25 -18 -6 0 -11 -4 -11 -10 0 -5 -4 -10 -10 -10
-5 0 -10 14 -10 30 0 17 -5 30 -12 30 -13 0 -78 -37 -88 -49 -14 -17 -90 -60
-90 -50 0 6 -7 9 -15 5 -10 -3 -15 1 -15 11 0 17 58 74 159 158 33 28 57 51
52 53 -5 2 -19 -5 -30 -14 -11 -10 -28 -19 -37 -20 -10 -2 -21 -10 -26 -18 -5
-9 -14 -16 -20 -16 -6 0 -5 7 4 18 9 9 23 32 32 50 9 17 23 32 31 32 15 0 30
18 22 27 -10 9 -76 -29 -82 -48 -4 -10 -9 -18 -13 -16 -9 2 -60 -35 -107 -78
-49 -46 -125 -98 -132 -91 -8 7 32 46 46 46 17 0 35 41 22 49 -20 13 45 59
109 77 14 4 36 15 49 25 13 11 30 19 37 19 7 0 17 6 21 13 8 13 63 42 74 39 4
-1 16 9 28 22 l22 23 -28 -5 c-15 -2 -32 -8 -38 -12 -5 -4 -36 -15 -67 -24
-32 -10 -60 -22 -64 -27 -3 -5 -14 -9 -25 -9 -11 0 -22 -7 -26 -16 -3 -8 -12
-13 -20 -10 -14 6 -66 -18 -111 -50 -20 -15 -22 -15 -16 -1 3 9 19 22 35 29
27 12 40 38 19 38 -5 0 -10 -4 -10 -10 0 -5 -9 -10 -20 -10 -11 0 -20 -4 -20
-10 0 -5 -9 -10 -20 -10 -11 0 -20 -4 -20 -10 0 -5 -9 -10 -20 -10 -11 0 -20
-4 -20 -10 0 -5 -9 -10 -20 -10 -11 0 -20 -4 -20 -10 0 -5 -7 -10 -16 -10 -8
0 -22 -7 -31 -15 -8 -8 -19 -13 -24 -10 -5 4 -9 1 -9 -4 0 -6 -8 -11 -18 -11
-10 0 -24 -9 -32 -20 -8 -11 -22 -20 -32 -20 -10 0 -18 -4 -18 -10 0 -5 -9
-10 -20 -10 -11 0 -20 -4 -20 -10 0 -5 -9 -10 -20 -10 -11 0 -20 -4 -20 -10 0
-5 -9 -10 -20 -10 -11 0 -20 -4 -20 -10 0 -5 -9 -10 -20 -10 -11 0 -20 -4 -20
-10 0 -5 -9 -10 -20 -10 -11 0 -20 -4 -20 -10 0 -5 -9 -10 -20 -10 -11 0 -20
-4 -20 -10 0 -5 -11 -10 -24 -10 -14 0 -28 -4 -31 -10 -3 -5 -19 -10 -35 -10
-16 0 -39 -4 -52 -9 -32 -12 -134 -25 -188 -24 -63 1 -253 21 -325 33 -33 6
-82 13 -110 16 -238 24 -398 43 -545 65 -91 13 -194 27 -267 35 -35 3 -63 10
-63 15 0 5 -27 9 -60 9 -33 0 -60 4 -60 9 0 5 -26 11 -57 15 -133 14 -159 19
-170 28 -7 5 -27 9 -45 8 -50 -3 -60 -1 -53 10 3 6 1 10 -4 10 -6 0 -11 -4
-11 -10 0 -5 -9 -10 -20 -10 -11 0 -20 5 -20 10 0 6 -22 10 -50 10 -27 0 -50
4 -50 9 0 5 -33 12 -72 15 -164 13 -208 18 -208 26 0 4 -26 10 -57 12 -32 3
-67 9 -77 13 -14 6 -17 5 -12 -3 8 -14 -6 -16 -20 -3 -10 10 -61 17 -191 27
-46 4 -83 9 -83 13 0 4 -35 8 -77 10 -42 1 -85 7 -94 12 -10 5 -45 9 -79 9
-34 0 -59 3 -56 8 2 4 -39 9 -92 11 -53 1 -101 6 -107 9 -5 4 -66 10 -135 14
-69 3 -174 11 -235 17 -300 31 -444 42 -695 56 -52 3 -133 9 -180 15 -152 18
-333 30 -408 26 -59 -3 -77 0 -96 15 -13 10 -26 15 -30 11 -4 -3 -4 1 0 11 3
9 10 15 14 12 4 -3 13 2 20 10 7 8 18 15 26 15 7 0 26 11 41 25 l28 24 -31 -8
c-28 -8 -31 -7 -27 10 3 10 0 19 -6 19 -6 0 -11 -5 -11 -11 0 -5 -4 -8 -9 -4
-5 3 -13 0 -16 -6 -4 -5 -13 -8 -20 -5 -7 2 -16 2 -19 -2 -4 -3 -16 -7 -28 -9
-24 -4 -87 -40 -103 -59 -5 -7 -28 -17 -50 -23 -91 -24 -87 -10 20 70 78 59
84 67 82 96 -1 18 -7 33 -14 33 -23 0 -107 -32 -144 -55 -20 -13 -40 -21 -43
-18 -12 12 -6 57 11 75 19 22 10 36 -12 18 -35 -29 -11 12 32 54 25 25 42 46
36 46 -5 0 -20 -12 -34 -26z m6226 -514 c-10 -11 -21 -17 -24 -14 -3 3 3 12
13 20 28 20 32 17 11 -6z m140 -220 c-3 -5 -11 -10 -16 -10 -6 0 -7 5 -4 10 3
6 11 10 16 10 6 0 7 -4 4 -10z m3 -40 c-12 -19 -28 -27 -28 -14 0 6 30 33 38
34 1 0 -3 -9 -10 -20z m-38 -30 c0 -5 -4 -10 -10 -10 -5 0 -10 5 -10 10 0 6 5
10 10 10 6 0 10 -4 10 -10z m90 -104 c0 -3 -4 -8 -10 -11 -5 -3 -10 -1 -10 4
0 6 5 11 10 11 6 0 10 -2 10 -4z m40 -76 c0 -5 -5 -10 -11 -10 -5 0 -7 5 -4
10 3 6 8 10 11 10 2 0 4 -4 4 -10z m-35 -10 c3 -5 1 -10 -4 -10 -6 0 -11 5
-11 10 0 6 2 10 4 10 3 0 8 -4 11 -10z m-8715 -187 c0 -18 -10 -16 -26 5 -20
25 -17 34 6 20 11 -7 20 -18 20 -25z m8844 2 c-4 -8 -11 -15 -16 -15 -6 0 -5
6 2 15 7 8 14 15 16 15 2 0 1 -7 -2 -15z m228 -87 c-6 -6 -15 -8 -19 -4 -4 4
-1 11 7 16 19 12 27 3 12 -12z m4186 -550 c-2 -6 -13 -16 -23 -22 -10 -6 -30
-21 -44 -34 -31 -27 -38 -15 -16 27 15 30 35 42 35 21 0 -5 5 -10 10 -10 6 0
10 7 10 15 0 8 7 15 16 15 9 0 14 -5 12 -12z m-104 -23 c-6 -16 -24 -21 -24
-7 0 11 11 22 21 22 5 0 6 -7 3 -15z m-30 -76 c-29 -30 -84 -63 -92 -55 -5 5
86 94 102 99 23 8 17 -16 -10 -44z m-84 37 c0 -3 -4 -8 -10 -11 -5 -3 -10 -1
-10 4 0 6 5 11 10 11 6 0 10 -2 10 -4z m285 -56 c3 -5 1 -10 -4 -10 -6 0 -11
5 -11 10 0 6 2 10 4 10 3 0 8 -4 11 -10z m-475 -240 c0 -26 -15 -33 -30 -15
-10 12 -9 15 5 15 11 0 15 5 11 16 -3 8 -2 12 4 9 6 -3 10 -15 10 -25z m430
-14 c0 -3 -4 -8 -10 -11 -5 -3 -10 -1 -10 4 0 6 5 11 10 11 6 0 10 -2 10 -4z
m-586 -91 c-4 -8 -11 -15 -16 -15 -6 0 -5 6 2 15 7 8 14 15 16 15 2 0 1 -7 -2
-15z m186 -35 c0 -5 -4 -10 -10 -10 -5 0 -10 5 -10 10 0 6 5 10 10 10 6 0 10
-4 10 -10z m-11120 -100 c0 -5 -4 -10 -10 -10 -5 0 -10 5 -10 10 0 6 5 10 10
10 6 0 10 -4 10 -10z m50 -26 c0 -12 -4 -12 -20 -4 -11 6 -18 15 -15 20 8 13
35 0 35 -16z m45 -15 c-3 -4 -12 -6 -20 -3 -8 4 -13 10 -10 15 3 4 12 6 20 3
8 -4 13 -10 10 -15z m48 -20 c-6 -6 -18 -6 -28 -3 -18 7 -18 8 1 14 23 9 39 1
27 -11z m11177 -14 c0 -18 -36 -34 -63 -27 -20 5 -15 15 11 18 9 2 18 8 20 13
6 17 32 13 32 -4z m-120 -35 c0 -5 -5 -10 -11 -10 -5 0 -7 5 -4 10 3 6 8 10
11 10 2 0 4 -4 4 -10z m-10670 -50 c0 -5 -2 -10 -4 -10 -3 0 -8 5 -11 10 -3 6
-1 10 4 10 6 0 11 -4 11 -10z m157 -76 c-3 -3 -12 -4 -19 -1 -8 3 -5 6 6 6 11
1 17 -2 13 -5z m463 -34 c8 -5 11 -10 5 -10 -5 0 -17 5 -25 10 -8 5 -10 10 -5
10 6 0 17 -5 25 -10z m65 -32 c14 -6 25 -15 25 -20 0 -6 -6 -7 -12 -4 -7 3
-21 9 -30 12 -10 4 -18 10 -18 15 0 12 4 11 35 -3z m80 -38 c-3 -5 -12 -7 -20
-3 -21 7 -19 13 6 13 11 0 18 -4 14 -10z m10075 -8 c0 -14 -9 -18 -41 -19 -27
-1 -39 2 -36 10 2 6 15 11 29 12 15 0 30 3 34 8 11 11 14 9 14 -11z m225 -442
c3 -5 1 -10 -4 -10 -6 0 -11 5 -11 10 0 6 2 10 4 10 3 0 8 -4 11 -10z m-1532
-132 c6 -21 2 -36 -7 -27 -10 11 -16 49 -8 49 5 0 12 -10 15 -22z m-69 -43 c3
-8 1 -15 -4 -15 -6 0 -10 7 -10 15 0 8 2 15 4 15 2 0 6 -7 10 -15z m382 -70
c6 -44 5 -48 -8 -38 -8 7 -18 9 -23 5 -4 -4 -4 4 0 17 6 20 4 23 -9 18 -20 -8
-21 6 -1 23 8 7 15 22 15 34 1 36 17 -2 26 -59z m131 -45 c6 0 14 -8 17 -17 4
-10 14 -31 22 -46 18 -32 8 -53 -10 -23 -6 11 -19 28 -28 38 -10 10 -18 23
-18 28 0 6 -7 10 -15 10 -9 0 -15 9 -15 22 0 20 1 20 18 5 10 -10 23 -17 29
-17z m263 -20 c0 -5 -4 -10 -10 -10 -5 0 -10 5 -10 10 0 6 5 10 10 10 6 0 10
-4 10 -10z m-346 -55 c-4 -8 -11 -12 -16 -9 -6 4 -5 10 3 15 19 12 19 11 13
-6z m51 5 c-3 -5 -10 -10 -16 -10 -5 0 -9 5 -9 10 0 6 7 10 16 10 8 0 12 -4 9
-10z m-15 -46 c0 -2 -9 -4 -20 -4 -11 0 -20 4 -20 9 0 5 9 7 20 4 11 -3 20 -7
20 -9z m375 -224 c3 -5 1 -10 -4 -10 -6 0 -11 5 -11 10 0 6 2 10 4 10 3 0 8
-4 11 -10z"/>
<path d="M4300 4690 c-9 -6 -10 -10 -3 -10 6 0 15 5 18 10 8 12 4 12 -15 0z"/>
<path d="M906 4505 c4 -8 8 -15 10 -15 2 0 4 7 4 15 0 8 -4 15 -10 15 -5 0 -7
-7 -4 -15z"/>
<path d="M4766 4461 c-4 -5 -2 -12 3 -15 5 -4 12 -2 15 3 4 5 2 12 -3 15 -5 4
-12 2 -15 -3z"/>
<path d="M966 4405 c4 -8 8 -15 10 -15 2 0 4 7 4 15 0 8 -4 15 -10 15 -5 0 -7
-7 -4 -15z"/>
<path d="M10800 4353 c-37 -25 -65 -53 -54 -53 9 1 93 70 84 70 -3 0 -17 -8
-30 -17z"/>
<path d="M10775 4289 c-4 -6 -5 -12 -2 -15 2 -3 7 2 10 11 7 17 1 20 -8 4z"/>
<path d="M10428 4283 c6 -2 18 -2 25 0 6 3 1 5 -13 5 -14 0 -19 -2 -12 -5z"/>
<path d="M10820 4249 c0 -5 5 -7 10 -4 6 3 10 8 10 11 0 2 -4 4 -10 4 -5 0
-10 -5 -10 -11z"/>
<path d="M10666 4202 c-83 -65 -162 -140 -155 -146 2 -3 22 10 44 29 21 19 42
35 45 35 4 0 25 18 48 40 23 21 42 34 42 27 0 -6 11 0 25 15 24 26 33 48 18
48 -5 -1 -35 -22 -67 -48z"/>
<path d="M10784 4225 c-10 -8 -14 -14 -9 -15 15 0 40 18 34 24 -3 3 -14 -1
-25 -9z"/>
<path d="M10745 4190 c-3 -5 -1 -10 4 -10 6 0 11 5 11 10 0 6 -2 10 -4 10 -3
0 -8 -4 -11 -10z"/>
<path d="M11020 4164 c0 -8 5 -12 10 -9 6 3 10 10 10 16 0 5 -4 9 -10 9 -5 0
-10 -7 -10 -16z"/>
<path d="M820 4150 c0 -5 5 -10 10 -10 6 0 10 5 10 10 0 6 -4 10 -10 10 -5 0
-10 -4 -10 -10z"/>
<path d="M10723 4146 c-13 -6 -23 -17 -23 -24 0 -7 -5 -10 -10 -7 -6 4 -22 0
-35 -9 -17 -11 -22 -21 -18 -37 l6 -23 8 22 c5 12 14 22 21 22 13 1 83 59 76
64 -1 1 -13 -3 -25 -8z"/>
<path d="M845 4130 c-3 -5 -1 -10 4 -10 6 0 11 5 11 10 0 6 -2 10 -4 10 -3 0
-8 -4 -11 -10z"/>
<path d="M10874 4115 c-3 -8 -29 -29 -57 -46 -29 -18 -56 -37 -62 -43 -5 -6
-34 -30 -64 -54 -59 -46 -61 -53 -7 -21 19 11 40 18 46 14 5 -3 10 0 10 8 0 8
17 26 38 40 49 35 130 117 114 117 -7 0 -15 -7 -18 -15z"/>
<path d="M10910 4089 c-55 -38 -88 -69 -73 -69 11 0 123 87 123 96 0 6 -2 5
-50 -27z"/>
<path d="M11160 4089 c0 -5 5 -7 10 -4 6 3 10 8 10 11 0 2 -4 4 -10 4 -5 0
-10 -5 -10 -11z"/>
<path d="M10470 4029 c0 -5 5 -7 10 -4 6 3 10 8 10 11 0 2 -4 4 -10 4 -5 0
-10 -5 -10 -11z"/>
<path d="M10880 4020 c-8 -5 -11 -12 -7 -16 4 -4 13 -2 19 4 15 15 7 24 -12
12z"/>
<path d="M10795 4010 c-3 -5 -2 -10 4 -10 5 0 13 5 16 10 3 6 2 10 -4 10 -5 0
-13 -4 -16 -10z"/>
<path d="M11012 3980 c-20 -32 -14 -40 12 -17 13 12 22 25 20 29 -8 13 -19 9
-32 -12z"/>
<path d="M10945 3979 c-11 -17 1 -21 15 -4 8 9 8 15 2 15 -6 0 -14 -5 -17 -11z"/>
<path d="M10878 3943 c7 -3 16 -2 19 1 4 3 -2 6 -13 5 -11 0 -14 -3 -6 -6z"/>
<path d="M10908 3896 c-44 -28 -62 -56 -38 -56 6 0 10 5 10 10 0 6 5 10 11 10
12 0 75 57 69 63 -3 3 -26 -10 -52 -27z"/>
<path d="M685 3910 c3 -5 8 -10 11 -10 2 0 4 5 4 10 0 6 -5 10 -11 10 -5 0 -7
-4 -4 -10z"/>
<path d="M11120 3780 c-12 -8 -11 -10 8 -10 12 0 22 5 22 10 0 13 -11 13 -30
0z"/>
<path d="M11100 3720 c0 -5 5 -10 11 -10 5 0 7 5 4 10 -3 6 -8 10 -11 10 -2 0
-4 -4 -4 -10z"/>
<path d="M11025 3680 c-3 -5 -1 -10 4 -10 6 0 11 5 11 10 0 6 -2 10 -4 10 -3
0 -8 -4 -11 -10z"/>
<path d="M11055 3679 c-4 -6 -5 -13 -2 -16 7 -7 27 6 27 18 0 12 -17 12 -25
-2z"/>
<path d="M11254 3615 c-10 -8 -14 -15 -7 -15 19 0 43 11 43 21 0 13 -14 11
-36 -6z"/>
<path d="M11090 3590 c-9 -6 -10 -10 -3 -10 6 0 15 5 18 10 8 12 4 12 -15 0z"/>
<path d="M11190 3590 c-13 -8 -12 -10 3 -10 9 0 17 5 17 10 0 12 -1 12 -20 0z"/>
<path d="M15713 3027 c-17 -7 -35 -15 -39 -19 -4 -5 -16 -8 -26 -8 -10 0 -18
-4 -18 -10 0 -13 23 -13 36 -1 5 6 36 17 68 25 32 9 61 18 64 21 10 10 -53 4
-85 -8z"/>
<path d="M1340 2975 c0 -9 6 -12 15 -9 8 4 15 10 15 15 0 5 -7 9 -15 9 -8 0
-15 -7 -15 -15z"/>
<path d="M15783 2983 c-13 -2 -23 -8 -23 -13 0 -10 38 -1 46 11 3 5 4 8 2 8
-2 -1 -13 -4 -25 -6z"/>
<path d="M15595 2970 c-3 -5 -2 -10 4 -10 5 0 13 5 16 10 3 6 2 10 -4 10 -5 0
-13 -4 -16 -10z"/>
<path d="M15055 2960 c-3 -5 -1 -10 4 -10 6 0 11 5 11 10 0 6 -2 10 -4 10 -3
0 -8 -4 -11 -10z"/>
<path d="M15552 2934 c-7 -8 -12 -19 -10 -23 2 -5 11 2 21 15 19 26 10 33 -11
8z"/>
<path d="M15730 2886 c0 -2 7 -7 16 -10 8 -3 12 -2 9 4 -6 10 -25 14 -25 6z"/>
<path d="M15415 2844 c-22 -15 -114 -76 -203 -136 -90 -60 -162 -112 -159
-114 5 -5 42 14 84 44 17 12 35 22 41 22 5 0 15 6 21 14 7 8 34 26 61 40 62
32 163 98 185 120 31 30 10 38 -30 10z"/>
<path d="M15700 2850 c0 -5 5 -10 10 -10 6 0 10 5 10 10 0 6 -4 10 -10 10 -5
0 -10 -4 -10 -10z"/>
<path d="M15500 2809 c0 -5 5 -7 10 -4 6 3 10 8 10 11 0 2 -4 4 -10 4 -5 0
-10 -5 -10 -11z"/>
<path d="M15455 2790 c-3 -5 1 -10 9 -10 9 0 16 5 16 10 0 6 -4 10 -9 10 -6 0
-13 -4 -16 -10z"/>
<path d="M15660 2615 c-10 -12 -10 -15 3 -15 19 0 31 16 18 24 -5 3 -14 -1
-21 -9z"/>
<path d="M15423 2565 c0 -8 4 -15 9 -15 4 0 8 7 8 15 0 8 -4 15 -8 15 -5 0 -9
-7 -9 -15z"/>
<path d="M15977 2549 c8 -8 16 -8 30 0 16 9 14 10 -11 11 -22 0 -27 -3 -19
-11z"/>
<path d="M15250 2500 c0 -5 5 -10 10 -10 6 0 10 5 10 10 0 6 -4 10 -10 10 -5
0 -10 -4 -10 -10z"/>
<path d="M15676 2411 c-3 -5 5 -11 19 -13 14 -3 26 0 29 8 6 16 -39 20 -48 5z"/>
<path d="M15755 2411 c-3 -5 -1 -12 5 -16 5 -3 10 1 10 9 0 18 -6 21 -15 7z"/>
<path d="M15499 2400 c-26 -4 -56 -13 -67 -19 -11 -6 -30 -11 -41 -11 -12 0
-21 -4 -21 -10 0 -13 -5 -13 82 6 40 9 105 22 143 29 l70 13 -60 0 c-33 0 -81
-4 -106 -8z"/>
<path d="M15715 2360 c4 -6 11 -8 16 -5 14 9 11 15 -7 15 -8 0 -12 -5 -9 -10z"/>
<path d="M15320 2350 c0 -5 4 -10 9 -10 6 0 13 5 16 10 3 6 -1 10 -9 10 -9 0
-16 -4 -16 -10z"/>
<path d="M15998 2333 c7 -3 16 -2 19 1 4 3 -2 6 -13 5 -11 0 -14 -3 -6 -6z"/>
<path d="M15758 2323 c7 -3 16 -2 19 1 4 3 -2 6 -13 5 -11 0 -14 -3 -6 -6z"/>
<path d="M15640 2260 c-8 -5 -12 -11 -9 -14 2 -3 11 -1 19 4 8 5 12 11 9 14
-2 3 -11 1 -19 -4z"/>
<path d="M15678 2263 c6 -2 18 -2 25 0 6 3 1 5 -13 5 -14 0 -19 -2 -12 -5z"/>
<path d="M3955 2220 c3 -5 8 -10 11 -10 2 0 4 5 4 10 0 6 -5 10 -11 10 -5 0
-7 -4 -4 -10z"/>
<path d="M15630 2220 c0 -5 16 -10 35 -10 19 0 35 5 35 10 0 6 -16 10 -35 10
-19 0 -35 -4 -35 -10z"/>
<path d="M15520 2212 c-19 -2 -39 -7 -43 -11 -8 -8 74 -3 82 5 8 7 -4 9 -39 6z"/>
<path d="M15580 2210 c0 -5 5 -10 10 -10 6 0 10 5 10 10 0 6 -4 10 -10 10 -5
0 -10 -4 -10 -10z"/>
<path d="M15400 2175 c0 -8 4 -15 9 -15 5 0 11 7 15 15 3 9 0 15 -9 15 -8 0
-15 -7 -15 -15z"/>
<path d="M15625 2170 c-3 -5 1 -10 10 -10 9 0 13 5 10 10 -3 6 -8 10 -10 10
-2 0 -7 -4 -10 -10z"/>
<path d="M15585 2050 c-3 -5 1 -10 9 -10 9 0 16 -4 16 -10 0 -8 -141 -14 -312
-13 -28 0 -21 -14 10 -19 15 -2 97 -5 182 -7 85 -1 157 -5 160 -7 2 -3 -1 -14
-8 -24 -11 -19 -9 -20 29 -20 26 0 38 4 33 11 -3 6 0 22 7 36 11 20 11 26 -1
33 -13 8 -12 10 3 10 9 0 17 7 17 15 0 12 -14 15 -69 15 -39 0 -73 -4 -76 -10z"/>
<path d="M15740 2050 c0 -5 5 -10 10 -10 6 0 10 5 10 10 0 6 -4 10 -10 10 -5
0 -10 -4 -10 -10z"/>
<path d="M15150 1999 c0 -5 5 -7 10 -4 6 3 10 8 10 11 0 2 -4 4 -10 4 -5 0
-10 -5 -10 -11z"/>
<path d="M15598 1953 c7 -3 16 -2 19 1 4 3 -2 6 -13 5 -11 0 -14 -3 -6 -6z"/>
<path d="M15830 1950 c0 -5 7 -10 15 -10 8 0 15 5 15 10 0 6 -7 10 -15 10 -8
0 -15 -4 -15 -10z"/>
<path d="M15921 1944 c-7 -8 -11 -17 -9 -20 6 -6 58 19 58 29 0 13 -35 7 -49
-9z"/>
<path d="M15785 1940 c-3 -5 -1 -10 4 -10 6 0 11 5 11 10 0 6 -2 10 -4 10 -3
0 -8 -4 -11 -10z"/>
<path d="M15425 1930 c-3 -6 1 -7 9 -4 18 7 21 14 7 14 -6 0 -13 -4 -16 -10z"/>
<path d="M15738 1933 c7 -3 16 -2 19 1 4 3 -2 6 -13 5 -11 0 -14 -3 -6 -6z"/>
<path d="M15510 1920 c36 -11 52 -11 45 0 -3 6 -21 10 -38 9 -31 -1 -31 -1 -7
-9z"/>
<path d="M4908 1903 c7 -3 16 -2 19 1 4 3 -2 6 -13 5 -11 0 -14 -3 -6 -6z"/>
<path d="M15820 1890 c20 -13 50 -13 50 0 0 6 -15 10 -32 10 -25 0 -29 -3 -18
-10z"/>
<path d="M15905 1880 c-3 -5 3 -10 15 -10 12 0 18 5 15 10 -3 6 -10 10 -15 10
-5 0 -12 -4 -15 -10z"/>
<path d="M15960 1870 c0 -5 5 -10 10 -10 6 0 10 5 10 10 0 6 -4 10 -10 10 -5
0 -10 -4 -10 -10z"/>
<path d="M15850 1815 c-34 -13 -34 -13 45 -14 48 -1 75 3 70 8 -18 17 -79 20
-115 6z"/>
<path d="M15713 1803 c9 -2 25 -2 35 0 9 3 1 5 -18 5 -19 0 -27 -2 -17 -5z"/>
<path d="M15125 1790 c-8 -13 5 -13 25 0 13 8 13 10 -2 10 -9 0 -20 -4 -23
-10z"/>
<path d="M15738 1763 c6 -2 18 -2 25 0 6 3 1 5 -13 5 -14 0 -19 -2 -12 -5z"/>
<path d="M15550 1752 c0 -13 139 -27 151 -15 5 5 2 9 -9 9 -9 1 -45 5 -79 9
-42 5 -63 4 -63 -3z"/>
<path d="M15940 1730 c0 -5 5 -10 10 -10 6 0 10 5 10 10 0 6 -4 10 -10 10 -5
0 -10 -4 -10 -10z"/>
<path d="M15867 1679 c4 -4 40 -10 78 -13 46 -4 65 -3 55 3 -20 12 -144 21
-133 10z"/>
<path d="M15848 1643 c6 -2 18 -2 25 0 6 3 1 5 -13 5 -14 0 -19 -2 -12 -5z"/>
<path d="M15535 1630 c26 -11 55 -12 55 -2 0 5 -17 9 -37 10 -30 0 -34 -2 -18
-8z"/>
<path d="M16018 1623 c7 -3 16 -2 19 1 4 3 -2 6 -13 5 -11 0 -14 -3 -6 -6z"/>
<path d="M15777 1573 c-17 -17 -3 -25 38 -21 25 2 45 0 45 -4 0 -5 24 -7 53
-7 52 1 52 2 12 8 -22 4 -50 12 -62 19 -28 16 -63 15 -63 0 0 -10 -2 -10 -8 0
-5 7 -11 9 -15 5z"/>
<path d="M8790 1556 c0 -2 8 -10 18 -17 15 -13 16 -12 3 4 -13 16 -21 21 -21
13z"/>
<path d="M15460 1556 c0 -5 85 -32 130 -41 20 -4 31 -4 27 1 -5 5 -12 9 -15
10 -4 0 -14 4 -22 7 -31 13 -120 30 -120 23z"/>
<path d="M10557 1513 c10 -26 79 -78 177 -132 42 -24 46 -25 46 -11 0 6 -5 10
-11 10 -12 0 -181 109 -191 124 -4 5 -4 14 -2 18 3 4 -2 8 -10 8 -10 0 -13 -6
-9 -17z"/>
<path d="M15672 1514 c-12 -8 -27 -12 -34 -8 -7 4 -8 3 -4 -4 9 -15 46 -16 46
-2 0 6 11 10 25 10 14 0 25 5 25 10 0 15 -33 12 -58 -6z"/>
<path d="M15868 1503 c7 -3 16 -2 19 1 4 3 -2 6 -13 5 -11 0 -14 -3 -6 -6z"/>
<path d="M15118 1483 c7 -3 16 -2 19 1 4 3 -2 6 -13 5 -11 0 -14 -3 -6 -6z"/>
<path d="M15774 1483 c7 -8 92 -32 114 -33 24 0 12 18 -19 29 -35 12 -106 15
-95 4z"/>
<path d="M15955 1440 c-19 -8 -19 -9 3 -9 12 -1 22 4 22 9 0 6 -1 10 -2 9 -2
0 -12 -4 -23 -9z"/>
<path d="M10850 1437 c0 -12 71 -48 87 -45 15 3 14 6 -7 20 -26 17 -80 34 -80
25z"/>
<path d="M15490 1429 c0 -5 9 -9 20 -9 11 0 20 -7 20 -15 0 -8 3 -15 6 -15 8
0 37 30 33 34 -11 9 -79 13 -79 5z"/>
<path d="M15708 1398 c9 -9 15 -9 24 0 9 9 7 12 -12 12 -19 0 -21 -3 -12 -12z"/>
<path d="M15410 1392 c8 -5 33 -13 54 -16 21 -4 49 -14 61 -22 18 -12 24 -12
41 0 11 8 15 18 10 23 -5 4 -11 2 -13 -4 -5 -15 -33 -18 -33 -4 0 12 -21 18
-85 26 -32 4 -45 3 -35 -3z"/>
<path d="M15610 1390 c-8 -5 -12 -11 -10 -14 3 -2 14 2 24 10 22 15 10 19 -14
4z"/>
<path d="M13444 1378 c4 -30 36 -54 36 -27 0 5 -4 7 -10 4 -5 -3 -10 1 -10 9
0 8 -4 17 -9 20 -5 4 -8 0 -7 -6z"/>
<path d="M15768 1383 c7 -3 16 -2 19 1 4 3 -2 6 -13 5 -11 0 -14 -3 -6 -6z"/>
<path d="M15280 1370 c0 -5 5 -10 11 -10 5 0 7 5 4 10 -3 6 -8 10 -11 10 -2 0
-4 -4 -4 -10z"/>
<path d="M15666 1364 c-11 -8 -16 -14 -10 -14 13 0 39 18 34 24 -3 2 -14 -2
-24 -10z"/>
<path d="M15941 1368 c-1 -12 6 -18 20 -18 11 0 17 5 14 10 -4 6 -10 8 -15 5
-4 -3 -11 1 -13 7 -3 8 -6 6 -6 -4z"/>
<path d="M15400 1359 c0 -5 12 -12 28 -15 15 -4 42 -16 60 -26 39 -21 42 -22
42 -5 0 11 -18 19 -102 47 -17 5 -28 5 -28 -1z"/>
<path d="M15713 1338 c2 -7 9 -13 15 -13 5 0 14 -3 18 -7 14 -15 30 -8 30 12
0 22 -11 27 -20 8 -5 -10 -7 -10 -12 0 -3 6 -12 12 -21 12 -8 0 -13 -6 -10
-12z"/>
<path d="M10970 1330 c0 -5 5 -10 11 -10 5 0 7 5 4 10 -3 6 -8 10 -11 10 -2 0
-4 -4 -4 -10z"/>
<path d="M15640 1296 c0 -2 7 -6 15 -10 8 -3 15 -1 15 4 0 6 -7 10 -15 10 -8
0 -15 -2 -15 -4z"/>
<path d="M15607 1283 c-12 -12 -7 -22 8 -17 8 4 15 10 15 15 0 11 -14 12 -23
2z"/>
<path d="M15692 1281 c-11 -7 -11 -9 0 -14 9 -3 15 1 15 9 0 8 -1 14 -1 14 -1
0 -7 -4 -14 -9z"/>
<path d="M15280 1271 c1 -14 190 -94 190 -80 0 5 -7 9 -15 9 -9 0 -18 7 -21
15 -4 8 -11 12 -16 9 -6 -4 -13 -2 -17 3 -8 11 -121 53 -121 44z"/>
<path d="M15760 1276 c0 -2 7 -7 16 -10 8 -3 12 -2 9 4 -6 10 -25 14 -25 6z"/>
<path d="M13148 1263 c7 -3 16 -2 19 1 4 3 -2 6 -13 5 -11 0 -14 -3 -6 -6z"/>
<path d="M13360 1259 c-13 -8 -13 -10 0 -19 21 -14 30 -12 30 4 0 20 -13 27
-30 15z"/>
<path d="M13652 1258 c2 -6 10 -14 16 -16 7 -2 10 2 6 12 -7 18 -28 22 -22 4z"/>
<path d="M15640 1250 c-9 -6 -10 -10 -3 -10 6 0 15 5 18 10 8 12 4 12 -15 0z"/>
<path d="M15217 1209 c7 -7 15 -10 18 -7 3 3 -2 9 -12 12 -14 6 -15 5 -6 -5z"/>
<path d="M15270 1169 c14 -11 52 -34 84 -50 33 -17 77 -43 99 -57 36 -24 77
-36 77 -23 0 3 -22 16 -49 29 -27 12 -51 29 -55 37 -3 8 -12 12 -21 9 -8 -3
-15 -2 -15 3 0 11 -113 73 -132 73 -7 0 -2 -10 12 -21z"/>
<path d="M15672 1185 c4 -4 38 -18 75 -30 106 -35 113 -37 113 -27 0 4 -30 18
-67 30 -85 27 -130 37 -121 27z"/>
<path d="M15630 1171 c0 -12 39 -25 48 -16 7 7 -17 25 -35 25 -7 0 -13 -4 -13
-9z"/>
<path d="M15022 1154 c10 -10 20 -15 24 -12 3 4 -5 12 -18 18 -22 12 -22 12
-6 -6z"/>
<path d="M14774 1131 c30 -34 202 -171 215 -171 6 0 11 -7 11 -15 0 -16 15
-20 24 -7 3 5 -27 33 -67 63 -39 30 -91 71 -115 91 -24 21 -53 43 -65 49 -22
12 -22 12 -3 -10z"/>
<path d="M14041 1131 c-8 -5 -9 -11 -3 -15 5 -3 15 1 22 9 14 16 3 20 -19 6z"/>
<path d="M15060 1130 c0 -5 5 -10 11 -10 5 0 7 5 4 10 -3 6 -8 10 -11 10 -2 0
-4 -4 -4 -10z"/>
<path d="M15090 1115 c0 -16 166 -110 258 -146 41 -16 23 1 -25 23 -27 12 -50
24 -53 27 -3 3 -16 12 -29 19 -13 8 -40 23 -60 34 -20 11 -45 27 -56 34 -20
14 -35 18 -35 9z"/>
<path d="M15523 1083 c9 -2 23 -2 30 0 6 3 -1 5 -18 5 -16 0 -22 -2 -12 -5z"/>
<path d="M15230 1075 c0 -2 17 -11 38 -20 20 -9 45 -21 54 -26 10 -5 23 -9 30
-9 7 0 -15 14 -50 30 -65 31 -72 33 -72 25z"/>
<path d="M15543 1015 c0 -8 4 -12 9 -9 4 3 8 9 8 15 0 5 -4 9 -8 9 -5 0 -9 -7
-9 -15z"/>
<path d="M15200 1006 c0 -7 123 -77 127 -72 8 8 -8 27 -18 21 -5 -4 -9 -2 -9
2 0 5 -20 19 -45 31 -46 22 -55 25 -55 18z"/>
<path d="M15521 987 c2 -1 13 -9 24 -17 19 -14 19 -14 6 3 -7 9 -18 17 -24 17
-6 0 -8 -1 -6 -3z"/>
<path d="M15585 980 c3 -5 11 -10 16 -10 6 0 7 5 4 10 -3 6 -11 10 -16 10 -6
0 -7 -4 -4 -10z"/>
<path d="M15115 920 c33 -35 64 -55 72 -46 8 8 -19 32 -63 56 l-39 22 30 -32z"/>
<path d="M15665 940 c3 -5 11 -10 16 -10 6 0 7 5 4 10 -3 6 -11 10 -16 10 -6
0 -7 -4 -4 -10z"/>
<path d="M14790 912 c0 -12 50 -46 56 -39 3 3 -9 15 -25 27 -17 12 -31 17 -31
12z"/>
<path d="M15235 890 c3 -5 8 -10 11 -10 2 0 4 5 4 10 0 6 -5 10 -11 10 -5 0
-7 -4 -4 -10z"/>
<path d="M14980 880 c0 -5 7 -10 16 -10 8 0 12 5 9 10 -3 6 -10 10 -16 10 -5
0 -9 -4 -9 -10z"/>
<path d="M15260 870 c0 -5 5 -10 11 -10 5 0 7 5 4 10 -3 6 -8 10 -11 10 -2 0
-4 -4 -4 -10z"/>
<path d="M14966 825 c10 -8 24 -14 29 -14 6 0 1 6 -9 14 -11 8 -24 15 -30 15
-5 0 -1 -7 10 -15z"/>
</g>
</svg>
